# xmcd
#
# Track frame offsets: 
#        150
#        32878
#        69759
#        108993
#        149142
#        191301
#        239822
#        277621
#        317519
#
# Disc length: 4695 seconds
#
# Revision: 2
# Processed by: cddbd v1.5.2PL0 Copyright (c) Steve Scherf et al.
# Submitted via: ExactAudioCopy v0.99pb5
#
DISCID=7b125509
DTITLE=Various Artist - Lime Light
DYEAR=2005
DGENRE=Progressive Trance
TTITLE0=Jaia vs French Kisz - Drifting Planet
TTITLE1=Rai - Liquid
TTITLE2=Vision and Canedy - Collected Vibes
TTITLE3=Minilogue - Leloo
TTITLE4=Flowjob - Cloud Politics
TTITLE5=Holm and Andersen - Cityrain
TTITLE6=Ticon - Reflections
TTITLE7=Leo - Music Design Revolution
TTITLE8=Shuma - Illektro Music
EXTD=
EXTT0=
EXTT1=
EXTT2=
EXTT3=
EXTT4=
EXTT5=
EXTT6=
EXTT7=
EXTT8=
PLAYORDER=
